<?xml version="1.0" encoding="UTF-8"?>
<svg xmlns="http://www.w3.org/2000/svg" xmlns:xlink="http://www.w3.org/1999/xlink" width="136px" height="136px" viewBox="0 0 136 136" version="1.1">
<g id="surface1">
<path style=" stroke:none;fill-rule:nonzero;fill:rgb(0%,0%,0%);fill-opacity:1;" d="M 65.304688 23.320312 C 62.886719 23.90625 60.867188 25.699219 59.804688 28.195312 L 59.433594 29.113281 L 57.441406 29.617188 C 51.304688 31.15625 45.898438 33.945312 41.027344 38.0625 C 37.464844 41.078125 33.679688 46.058594 31.238281 50.933594 C 29.722656 53.976562 28.382812 58.011719 27.835938 61.226562 C 27.769531 61.636719 27.691406 61.71875 27.105469 61.929688 C 26.257812 62.222656 24.941406 63.207031 24.425781 63.910156 C 23.320312 65.4375 22.84375 66.898438 22.84375 68.796875 C 22.84375 70.867188 23.480469 72.660156 24.691406 74.015625 C 25.378906 74.773438 26.628906 75.636719 27.371094 75.863281 C 27.824219 75.996094 27.878906 76.0625 27.96875 76.554688 C 28.328125 78.71875 29.921875 83.339844 31.277344 86.15625 C 33.375 90.511719 35.621094 93.765625 38.714844 96.941406 C 43.75 102.09375 50.015625 105.625 57.640625 107.566406 C 59.511719 108.042969 59.699219 108.121094 59.777344 108.414062 C 59.976562 109.171875 60.816406 110.488281 61.558594 111.242188 C 62.476562 112.171875 63.816406 112.917969 65.105469 113.222656 C 66.207031 113.476562 68.519531 113.476562 69.527344 113.222656 C 71.707031 112.664062 73.644531 111.085938 74.5625 109.09375 L 75.066406 108.03125 L 76.605469 107.65625 C 81.917969 106.394531 87.523438 103.765625 92.011719 100.460938 C 94.097656 98.90625 97.683594 95.304688 99.277344 93.140625 C 102.476562 88.8125 104.960938 83.566406 106.328125 78.253906 C 106.875 76.113281 106.980469 75.835938 107.234375 75.835938 C 107.484375 75.835938 108.800781 75.132812 109.382812 74.679688 C 109.648438 74.480469 110.15625 73.898438 110.511719 73.390625 C 112.148438 71.09375 112.371094 67.855469 111.097656 65.265625 C 110.511719 64.070312 109.066406 62.648438 107.816406 62.035156 L 106.96875 61.613281 L 106.675781 60.152344 C 106.328125 58.476562 105.292969 55.195312 104.511719 53.296875 C 101.773438 46.710938 97.3125 40.839844 92.039062 36.882812 C 87.019531 33.109375 81.109375 30.335938 76.023438 29.351562 L 75.210938 29.191406 L 75 28.5 C 74.480469 26.882812 72.96875 25.046875 71.308594 24.078125 C 69.820312 23.1875 67.191406 22.855469 65.304688 23.320312 Z M 68.332031 29.339844 C 69.050781 29.65625 69.632812 30.359375 69.992188 31.304688 C 70.230469 31.953125 70.269531 32.273438 70.230469 33.335938 C 70.179688 34.425781 70.125 34.703125 69.765625 35.394531 C 69.539062 35.832031 69.140625 36.484375 68.890625 36.828125 L 68.4375 37.464844 L 68.691406 38.289062 C 68.863281 38.835938 68.984375 39.699219 69.050781 40.839844 L 69.128906 42.554688 L 70.390625 42.710938 C 74.828125 43.269531 80.085938 45.488281 83.660156 48.304688 L 84.640625 49.074219 L 85.386719 48.34375 C 85.808594 47.945312 86.527344 47.402344 87.003906 47.148438 L 87.855469 46.683594 L 87.933594 45.660156 C 88.09375 43.800781 89.105469 42.195312 90.605469 41.449219 C 91.203125 41.144531 91.601562 41.039062 92.132812 41.039062 C 93.910156 41.039062 94.828125 42.007812 94.828125 43.867188 C 94.828125 46.152344 93.179688 47.839844 90.578125 48.210938 C 90.046875 48.289062 89.59375 48.355469 89.582031 48.382812 C 89.570312 48.398438 89.328125 48.78125 89.0625 49.246094 C 88.785156 49.710938 88.226562 50.441406 87.828125 50.867188 L 87.113281 51.652344 L 87.949219 52.632812 C 90.644531 55.808594 92.914062 61.425781 93.566406 66.550781 L 93.644531 67.164062 L 94.933594 67.242188 C 95.691406 67.296875 96.542969 67.441406 97.007812 67.601562 C 97.445312 67.746094 97.882812 67.867188 98.003906 67.867188 C 98.121094 67.867188 98.691406 67.535156 99.277344 67.136719 C 100.9375 65.980469 102.453125 65.636719 103.9375 66.074219 C 105.375 66.5 106.304688 67.601562 106.289062 68.863281 C 106.289062 69.648438 106.050781 70.152344 105.425781 70.75 C 104.695312 71.453125 103.832031 71.757812 102.53125 71.773438 C 101.203125 71.785156 100.460938 71.546875 99.277344 70.734375 C 98.839844 70.429688 98.359375 70.136719 98.226562 70.085938 C 98.082031 70.03125 97.578125 70.125 96.980469 70.335938 C 96.355469 70.550781 95.558594 70.710938 94.816406 70.75 C 93.488281 70.84375 93.59375 70.695312 93.433594 72.4375 C 93.339844 73.378906 92.78125 75.78125 92.332031 77.230469 C 91.429688 80.058594 89.808594 83.140625 87.960938 85.492188 L 87.097656 86.605469 L 87.894531 87.445312 C 88.320312 87.910156 88.863281 88.585938 89.105469 88.945312 L 89.542969 89.609375 L 90.457031 89.6875 C 92.808594 89.886719 94.640625 91.613281 94.800781 93.777344 C 94.855469 94.523438 94.816406 94.773438 94.5625 95.292969 C 93.820312 96.832031 91.707031 97.152344 89.953125 95.984375 C 88.796875 95.214844 88.09375 93.898438 87.855469 92.039062 C 87.789062 91.496094 87.734375 91.414062 87.164062 91.109375 C 86.832031 90.9375 86.140625 90.390625 85.625 89.914062 L 84.679688 89.023438 L 83.261719 90.101562 C 81.386719 91.519531 79.289062 92.703125 77.109375 93.578125 C 75.027344 94.417969 72.210938 95.171875 70.363281 95.398438 L 69.0625 95.546875 L 69.0625 96.648438 C 69.0625 97.828125 68.875 98.933594 68.570312 99.515625 C 68.398438 99.863281 68.410156 99.914062 68.863281 100.445312 C 69.714844 101.429688 70.164062 102.542969 70.230469 103.765625 C 70.324219 105.492188 69.925781 106.460938 68.835938 107.21875 C 67.894531 107.882812 66.484375 107.832031 65.609375 107.085938 C 65.382812 106.902344 65.039062 106.4375 64.839844 106.0625 C 64.519531 105.464844 64.480469 105.242188 64.480469 104.125 C 64.480469 102.984375 64.519531 102.785156 64.890625 102 C 65.117188 101.523438 65.515625 100.871094 65.769531 100.539062 L 66.234375 99.929688 L 65.980469 99.210938 C 65.835938 98.8125 65.675781 97.828125 65.609375 97.03125 C 65.542969 96.234375 65.476562 95.570312 65.449219 95.558594 C 65.421875 95.546875 64.839844 95.453125 64.148438 95.359375 C 61.652344 95.027344 58.625 94.136719 56.257812 93.0625 C 54.90625 92.425781 52.515625 90.976562 51.160156 89.953125 C 50.546875 89.488281 50.003906 89.117188 49.9375 89.117188 C 49.882812 89.117188 49.738281 89.261719 49.617188 89.4375 C 49.367188 89.835938 48.011719 90.882812 47.359375 91.1875 C 46.960938 91.386719 46.882812 91.496094 46.882812 91.828125 C 46.882812 92.398438 46.523438 93.832031 46.273438 94.324219 C 46.152344 94.535156 45.820312 94.988281 45.515625 95.320312 C 43.960938 97.007812 41.304688 97.164062 40.28125 95.613281 C 39.722656 94.773438 39.683594 93.554688 40.175781 92.449219 C 40.90625 90.84375 42.339844 89.875 44.292969 89.6875 C 45.089844 89.621094 45.089844 89.609375 45.675781 88.824219 C 45.992188 88.398438 46.550781 87.722656 46.910156 87.324219 L 47.558594 86.605469 L 46.777344 85.570312 C 45.59375 84.015625 44.851562 82.820312 43.90625 80.9375 C 42.511719 78.105469 41.636719 75.238281 41.292969 72.289062 L 41.117188 70.828125 L 39.84375 70.734375 C 39.125 70.695312 38.222656 70.535156 37.785156 70.390625 C 36.761719 70.03125 36.46875 70.058594 35.820312 70.511719 C 33.46875 72.117188 31.039062 72.289062 29.511719 70.976562 C 26.921875 68.757812 29.390625 65.265625 33.003906 66.007812 C 33.945312 66.207031 34.730469 66.578125 35.726562 67.335938 C 36.203125 67.695312 36.550781 67.867188 36.722656 67.8125 C 36.867188 67.789062 37.320312 67.65625 37.71875 67.535156 C 38.117188 67.414062 39.058594 67.28125 39.804688 67.242188 L 41.160156 67.164062 L 41.238281 66.285156 C 41.53125 63.417969 42.40625 60.335938 43.707031 57.640625 C 44.8125 55.371094 45.582031 54.09375 46.722656 52.6875 L 47.558594 51.636719 L 46.804688 50.761719 C 46.378906 50.269531 45.832031 49.539062 45.582031 49.140625 C 45.328125 48.742188 45.089844 48.382812 45.0625 48.355469 C 45.035156 48.316406 44.597656 48.25 44.082031 48.199219 C 42.3125 48 40.960938 47.09375 40.230469 45.621094 C 39.855469 44.851562 39.816406 44.679688 39.871094 43.734375 C 39.921875 42.566406 40.214844 41.96875 41.011719 41.425781 C 41.636719 41 42.792969 40.933594 43.722656 41.25 C 44.53125 41.542969 45.765625 42.660156 46.207031 43.523438 C 46.5625 44.238281 46.882812 45.460938 46.882812 46.152344 C 46.882812 46.671875 46.910156 46.695312 47.640625 47.082031 C 48.050781 47.292969 48.753906 47.824219 49.21875 48.277344 L 50.042969 49.074219 L 50.828125 48.421875 C 54.253906 45.566406 59.328125 43.335938 63.617188 42.765625 C 64.242188 42.6875 64.933594 42.59375 65.144531 42.554688 L 65.542969 42.5 L 65.570312 41.199219 C 65.582031 40.414062 65.703125 39.433594 65.886719 38.703125 L 66.167969 37.480469 L 65.753906 36.867188 C 64.878906 35.605469 64.492188 34.570312 64.441406 33.324219 C 64.375 31.875 64.625 30.957031 65.304688 30.160156 C 66.167969 29.152344 67.269531 28.847656 68.332031 29.339844 Z M 68.332031 29.339844 "/>
<path style=" stroke:none;fill-rule:nonzero;fill:rgb(0%,0%,0%);fill-opacity:1;" d="M 64.480469 48 C 62.261719 48.332031 60.683594 48.796875 58.53125 49.765625 C 52.316406 52.539062 47.785156 58.53125 46.617188 65.542969 C 46.191406 68.011719 46.285156 71.464844 46.804688 73.765625 C 48.222656 79.941406 52.316406 85.210938 57.839844 87.976562 C 61.558594 89.847656 66.046875 90.671875 69.6875 90.167969 C 70.257812 90.085938 71.386719 89.859375 72.195312 89.648438 C 81.519531 87.296875 87.960938 79.488281 88.414062 69.992188 C 88.746094 62.914062 85.121094 55.554688 79.421875 51.730469 C 77.109375 50.191406 73.804688 48.769531 71.121094 48.183594 C 69.554688 47.851562 66.140625 47.757812 64.480469 48 Z M 68.371094 49.726562 L 68.863281 50.175781 L 68.929688 54.398438 L 68.996094 58.609375 L 69.925781 58.796875 C 70.933594 58.996094 72.59375 59.710938 73.179688 60.21875 L 73.566406 60.535156 L 76.195312 57.878906 C 77.640625 56.417969 78.984375 55.144531 79.183594 55.039062 C 80.578125 54.308594 82.105469 55.925781 81.359375 57.347656 C 81.253906 57.546875 79.992188 58.863281 78.558594 60.285156 L 75.941406 62.875 L 76.234375 63.339844 C 76.753906 64.214844 77.191406 65.265625 77.46875 66.367188 L 77.761719 67.46875 L 81.917969 67.46875 C 86.5 67.46875 86.660156 67.496094 87.070312 68.292969 C 87.351562 68.835938 87.335938 69.472656 87.046875 69.980469 C 86.582031 70.761719 86.382812 70.789062 81.839844 70.789062 L 77.722656 70.789062 L 77.574219 71.464844 C 77.335938 72.582031 76.621094 74.214844 75.941406 75.183594 C 75.824219 75.359375 76.300781 75.875 78.679688 78.238281 C 81.425781 80.960938 81.546875 81.109375 81.546875 81.585938 C 81.546875 82.277344 81.203125 82.980469 80.738281 83.207031 C 80.539062 83.3125 80.074219 83.40625 79.726562 83.40625 L 79.089844 83.40625 L 76.246094 80.539062 L 73.417969 77.667969 L 73.019531 77.960938 C 72.34375 78.464844 71.015625 79.023438 69.964844 79.25 L 68.941406 79.460938 L 68.902344 83.75 L 68.863281 88.027344 L 68.542969 88.375 C 67.8125 89.15625 66.578125 89.117188 65.980469 88.28125 C 65.675781 87.855469 65.675781 87.828125 65.675781 83.660156 L 65.675781 79.449219 L 64.679688 79.234375 C 63.710938 79.023438 61.902344 78.265625 61.480469 77.882812 C 61.292969 77.722656 60.972656 78 58.625 80.363281 C 57.175781 81.824219 55.820312 83.113281 55.621094 83.21875 C 55.039062 83.527344 54.265625 83.460938 53.800781 83.0625 C 53.335938 82.675781 53.046875 81.878906 53.179688 81.320312 C 53.246094 81.070312 54.1875 80.058594 56.074219 78.226562 L 58.863281 75.492188 L 58.359375 74.695312 C 57.839844 73.910156 57.203125 72.238281 57.042969 71.28125 L 56.964844 70.789062 L 52.78125 70.789062 C 49.328125 70.789062 48.53125 70.75 48.210938 70.589844 C 47.625 70.285156 47.414062 69.886719 47.414062 69.101562 C 47.414062 68.519531 47.480469 68.332031 47.800781 67.972656 L 48.183594 67.535156 L 56.949219 67.457031 L 57.042969 66.859375 C 57.164062 65.996094 57.574219 64.90625 58.171875 63.789062 L 58.703125 62.808594 L 53.125 57.308594 L 53.125 56.617188 C 53.125 56.035156 53.191406 55.847656 53.523438 55.460938 C 54.09375 54.824219 54.707031 54.640625 55.277344 54.929688 C 55.515625 55.050781 56.921875 56.351562 58.398438 57.828125 L 61.066406 60.496094 L 61.785156 60.003906 C 62.542969 59.472656 63.988281 58.890625 64.945312 58.730469 L 65.542969 58.625 L 65.609375 54.453125 C 65.664062 50.761719 65.703125 50.230469 65.902344 49.9375 C 66.234375 49.484375 66.644531 49.285156 67.308594 49.273438 C 67.773438 49.273438 67.960938 49.351562 68.371094 49.726562 Z M 68.371094 49.726562 "/>
<path style=" stroke:none;fill-rule:nonzero;fill:rgb(0%,0%,0%);fill-opacity:1;" d="M 65.941406 62.023438 C 63.789062 62.460938 61.902344 63.882812 60.988281 65.78125 C 58.648438 70.628906 62.011719 76.101562 67.335938 76.101562 C 70.683594 76.101562 73.550781 73.855469 74.308594 70.644531 C 75.476562 65.664062 70.976562 61.015625 65.941406 62.023438 Z M 65.941406 62.023438 "/>
</g>
</svg>
